# xmcd
#
# Track frame offsets:
#	150
#	18832
#	42380
#	59872
#	74237
#	95257
#	112145
#	128835
#	142505
#	154530
#	170372
#
# Disc length: 2470 seconds
#
# Revision: 0
# Processed by: cddbd v1.5.2PL0 Copyright (c) Steve Scherf et al.
# Submitted via: EasyCDDAExtractor 12.0.1.1
#
DISCID=9709a40b
DTITLE=Tom Petty - Let Me Up (I`ve Had Enough)
DYEAR=1990
DGENRE=Blues
TTITLE0=Jammin` Me
TTITLE1=Runaway Trains
TTITLE2=The Damage You`ve Done
TTITLE3=It`ll All Work Out
TTITLE4=My Life,your World
TTITLE5=Think About Me
TTITLE6=All Mixed Up
TTITLE7=A Self-Made Man
TTITLE8=Ain`t Love Strange
TTITLE9=Let Me Up (I`ve Had Enough)
TTITLE10=How Many More Days
EXTD=
EXTT0=
EXTT1=
EXTT2=
EXTT3=
EXTT4=
EXTT5=
EXTT6=
EXTT7=
EXTT8=
EXTT9=
EXTT10=
PLAYORDER=
